<?xml version="1.0" encoding="utf-8"?>
<!-- Generator: Adobe Illustrator 25.2.3, SVG Export Plug-In . SVG Version: 6.00 Build 0)  -->
<svg version="1.1" id="Lag_1" xmlns="http://www.w3.org/2000/svg" xmlns:xlink="http://www.w3.org/1999/xlink" x="0px" y="0px"
	 viewBox="0 0 96.38 127.56" style="enable-background:new 0 0 96.38 127.56;" xml:space="preserve">
<style type="text/css">
	.st0{fill:#54640D;}
	.st1{fill:#3B5966;}
	.st2{fill:#72501D;}
	.st3{fill:#9D024A;}
</style>
<path class="st0" d="M89.07,91.1h0.88c0.91,0,1.49-0.45,1.49-1.12c0-0.76-0.62-1.09-1.52-1.1c-0.41,0-0.71,0.03-0.85,0.07V91.1z
	 M88.22,88.42c0.43-0.08,1.05-0.12,1.64-0.12c0.91,0,1.5,0.15,1.92,0.48c0.33,0.26,0.52,0.66,0.52,1.12c0,0.78-0.55,1.29-1.25,1.5
	v0.03c0.51,0.16,0.82,0.58,0.97,1.19c0.22,0.82,0.37,1.39,0.51,1.62h-0.88c-0.11-0.17-0.26-0.67-0.44-1.41
	c-0.2-0.81-0.55-1.12-1.33-1.14h-0.81v2.55h-0.86V88.42z"/>
<path class="st0" d="M90.07,86.78c-2.44,0-4.42,1.98-4.42,4.42s1.98,4.42,4.42,4.42s4.42-1.98,4.42-4.42S92.51,86.78,90.07,86.78
	 M90.07,96.3c-2.81,0-5.09-2.29-5.09-5.1s2.28-5.09,5.09-5.09c2.81,0,5.09,2.29,5.09,5.09S92.88,96.3,90.07,96.3"/>
<path class="st0" d="M30.36,7.88c0.05,0.05,0.08,0.11,0.1,0.19C30.45,7.99,30.41,7.93,30.36,7.88 M21.39,19.83
	c-0.01-0.02-0.03-0.05-0.05-0.07C21.36,19.78,21.38,19.81,21.39,19.83 M30.97,13.43l-0.76-1.4c-0.15-0.27-0.31-0.54-0.49-0.81
	c-0.33,0.7-0.65,1.43-0.94,2.16c-0.3,0.75-0.59,1.52-0.86,2.31l4.08-0.04c-0.12-0.28-0.25-0.57-0.4-0.88
	C31.61,14.78,30.96,13.41,30.97,13.43 M72.14,9.09c0-0.3-0.08-0.6-0.22-0.9c-0.14-0.29-0.4-0.56-0.76-0.81
	c-0.34-0.24-0.71-0.41-1.12-0.51c-0.42-0.1-0.86-0.16-1.29-0.16c-0.38,0-0.76,0.04-1.13,0.11c-0.29,0.06-0.58,0.14-0.86,0.23v5.52
	c0.48-0.03,0.95-0.07,1.39-0.12c0.57-0.06,1.13-0.2,1.69-0.41c0.31-0.11,0.61-0.28,0.88-0.49c0.28-0.21,0.52-0.46,0.75-0.74
	c0.21-0.27,0.38-0.56,0.5-0.87C72.08,9.67,72.14,9.38,72.14,9.09 M83.06,13.93c-0.68,0.03-1.36,0.04-2.04,0.02v-3.4
	c0.85-0.12,1.74-0.17,2.66-0.16c1.05,0.02,2.06,0,2.99-0.05c0.02,0,0.04,0,0.06-0.01c0.44-0.1,0.76-0.3,0.96-0.59
	c0.21-0.29,0.29-0.6,0.24-0.91c-0.04-0.3-0.2-0.58-0.46-0.81C87.2,7.79,86.84,7.68,86.4,7.7c-0.62,0.03-1.25,0.05-1.87,0.05
	c-0.63,0-1.28,0.01-1.92,0.04c-0.65,0.02-1.3,0.07-1.93,0.14c-0.65,0.07-1.3,0.21-1.92,0.4c-0.35,0.12-0.61,0.31-0.78,0.55
	c-0.17,0.24-0.25,0.5-0.25,0.76c0,0.27,0.08,0.51,0.23,0.73c0.1,0.15,0.24,0.26,0.4,0.35v9.99c-0.02,0.24,0.04,0.49,0.19,0.74
	c0.15,0.24,0.38,0.44,0.7,0.6c0.02,0.01,0.05,0.02,0.08,0.03c0.59,0.14,1.22,0.24,1.88,0.29c0.65,0.05,1.31,0.06,1.97,0.04
	c0.66-0.02,1.33-0.08,1.98-0.18c0.65-0.1,1.27-0.22,1.84-0.38c0.03-0.01,0.06-0.02,0.09-0.04c0.34-0.2,0.57-0.44,0.68-0.73
	c0.12-0.29,0.14-0.58,0.06-0.85c-0.08-0.28-0.26-0.52-0.53-0.7c-0.26-0.18-0.58-0.26-0.97-0.24c-0.03,0-0.05,0.01-0.08,0.01
	c-0.84,0.23-1.76,0.37-2.74,0.44c-0.86,0.06-1.69,0.04-2.5-0.06v-3.06c0.73,0.02,1.46,0.01,2.19-0.03c0.84-0.05,1.71-0.11,2.59-0.19
	c0.02,0,0.03-0.01,0.05-0.01c0.43-0.1,0.76-0.3,0.96-0.58c0.21-0.3,0.29-0.61,0.24-0.92c-0.04-0.3-0.2-0.57-0.46-0.81
	c-0.27-0.24-0.63-0.35-1.07-0.33C84.69,13.83,83.87,13.89,83.06,13.93 M75.12,19.99c0.24-0.23,0.37-0.55,0.37-0.91
	c0-0.35-0.11-0.67-0.34-0.96c-0.02-0.02-1.79-1.96-1.79-1.96l-0.17-0.18c-0.6-0.66-1.13-1.24-1.62-1.79
	c0.38-0.21,0.73-0.45,1.05-0.72c0.44-0.38,0.83-0.8,1.14-1.25c0.32-0.46,0.57-0.96,0.74-1.47c0.18-0.52,0.27-1.06,0.27-1.61
	c0-0.68-0.15-1.36-0.46-2c-0.31-0.65-0.8-1.25-1.47-1.78c-0.57-0.45-1.21-0.78-1.89-0.99c-0.67-0.2-1.38-0.3-2.1-0.3
	c-0.88,0-1.77,0.14-2.64,0.41c-0.86,0.27-1.65,0.63-2.35,1.07c-0.01,0.01-0.02,0.01-0.03,0.02c-0.2,0.16-0.36,0.35-0.45,0.56
	c-0.09,0.21-0.14,0.41-0.14,0.6c0,0.33,0.11,0.61,0.32,0.85c0.14,0.15,0.31,0.26,0.51,0.33v10.99c0,0.02,0,0.03,0,0.05
	c0.06,0.44,0.22,0.77,0.47,0.99c0.26,0.23,0.55,0.34,0.86,0.34c0.33,0,0.63-0.12,0.9-0.37c0.27-0.25,0.41-0.61,0.43-1.09v-3.55
	c0.32-0.01,0.63-0.03,0.94-0.06c0.36-0.03,0.73-0.07,1.11-0.14c0.1,0.11,0.22,0.24,0.37,0.4c0.24,0.26,0.51,0.54,0.79,0.86
	l0.49,0.55l0.44,0.49c0.29,0.33,0.59,0.66,0.94,1.04l0.68,0.74l0.12,0.13c0.28,0.31,0.42,0.48,0.49,0.55
	c0.17,0.19,0.36,0.32,0.56,0.4c0.2,0.07,0.38,0.11,0.54,0.11C74.58,20.34,74.88,20.22,75.12,19.99 M60.66,12.05
	c0.04-1.18,0.07-2.2,0.08-3.14c0-0.03,0-0.07-0.01-0.1c-0.1-0.38-0.28-0.67-0.52-0.86c-0.24-0.19-0.51-0.29-0.8-0.29
	c-0.31,0-0.59,0.11-0.84,0.33c-0.23,0.21-0.39,0.51-0.49,0.89c-0.01,0.03-0.01,0.05-0.01,0.08c-0.02,0.46-0.03,0.98-0.03,1.57
	c-0.01,0.59-0.03,1.23-0.06,1.95c-0.04,0.81-0.08,1.48-0.12,2.11c-0.04,0.69-0.11,1.36-0.2,2c-0.09,0.63-0.19,1.18-0.3,1.66
	c-0.11,0.44-0.24,0.76-0.39,0.96c-0.32,0.41-0.69,0.71-1.09,0.89c-0.41,0.19-0.82,0.28-1.24,0.28c-0.36,0-0.73-0.06-1.12-0.16
	c-0.36-0.1-0.67-0.3-0.96-0.6c-0.21-0.21-0.38-0.54-0.52-0.97c-0.14-0.46-0.25-1.01-0.32-1.61c-0.07-0.61-0.12-1.28-0.14-1.99
	c-0.02-0.69-0.03-1.41-0.02-2.14c0,0,0.04-2.08,0.04-2.08c0.02-0.69,0.02-1.28,0.02-1.79c0-0.03,0-0.06-0.01-0.09
	c-0.1-0.38-0.27-0.66-0.52-0.86c-0.25-0.19-0.52-0.29-0.81-0.29c-0.31,0-0.59,0.11-0.83,0.33c-0.23,0.21-0.39,0.51-0.49,0.89
	c-0.01,0.03-0.01,0.06-0.01,0.09c0,0.83-0.01,1.73-0.03,2.66c-0.02,0.98-0.01,1.95,0.01,2.88c0.03,0.99,0.09,1.94,0.19,2.83
	c0.1,0.93,0.3,1.8,0.58,2.58c0.17,0.49,0.43,0.94,0.77,1.32c0.34,0.37,0.72,0.68,1.16,0.92c0.43,0.24,0.9,0.43,1.4,0.55
	c0.49,0.12,1,0.18,1.52,0.18c0.43,0,0.89-0.05,1.35-0.14c0.47-0.09,0.92-0.23,1.34-0.43c0.43-0.19,0.83-0.44,1.18-0.74
	c0.36-0.31,0.65-0.68,0.84-1.11c0.32-0.64,0.58-1.45,0.77-2.39c0.18-0.93,0.33-1.92,0.43-2.94C60.55,14.24,60.62,13.16,60.66,12.05
	 M47.34,7.31c0.02-0.29-0.07-0.57-0.26-0.83c-0.19-0.25-0.46-0.44-0.82-0.55c-0.04-0.01-0.08-0.02-0.12-0.02
	c-0.2,0-0.55,0.01-1.01,0.01l-1.66,0.01h-2.01h-2.01h-1.68h-0.99c-0.46,0-0.83,0.13-1.08,0.39c-0.24,0.25-0.38,0.54-0.4,0.87
	C35.3,7.5,35.4,7.8,35.63,8.07c0.22,0.26,0.54,0.44,0.95,0.51c0.02,0,0.05,0.01,0.07,0.01h3.37l0.02,11.24c0,0.02,0,0.03,0,0.05
	c0.06,0.44,0.22,0.77,0.48,0.99c0.25,0.22,0.54,0.34,0.85,0.34c0.33,0,0.63-0.12,0.9-0.37c0.27-0.25,0.42-0.61,0.44-1.07
	c0-0.02-0.02-9.23-0.02-11.19l3.32-0.02c0.02,0,0.05,0,0.07-0.01c0.39-0.08,0.69-0.23,0.9-0.45C47.2,7.88,47.32,7.61,47.34,7.31
	 M36.76,17.81c0.21-0.24,0.33-0.51,0.34-0.79c0.01-0.28-0.08-0.55-0.27-0.81c-0.19-0.25-0.47-0.44-0.85-0.56
	c-0.04-0.01-0.08-0.02-0.12-0.02l-1,0.02l-0.34-0.86c-0.16-0.39-0.33-0.76-0.5-1.11c-0.44-1-0.96-2.03-1.52-3.05
	c-0.57-1.02-1.28-1.95-2.12-2.76c-0.02-0.02-0.05-0.04-0.08-0.05c-0.01-0.01-0.02-0.01-0.02-0.01c-0.14-0.13-0.31-0.22-0.51-0.27
	c-0.24-0.06-0.47-0.04-0.71,0.05c0.02,0,0.03-0.01,0.04-0.01c-0.02,0-0.03,0.01-0.05,0.01c0,0,0,0,0,0
	c-0.54,0.14-0.77,0.48-0.87,0.76c-1.1,2.09-2.04,4.25-2.77,6.43c-0.74,2.19-1.37,4.45-1.89,6.74c-0.08,0.45-0.03,0.82,0.15,1.12
	c0.18,0.3,0.43,0.5,0.73,0.59c0.3,0.09,0.61,0.06,0.93-0.09c0.32-0.15,0.57-0.44,0.73-0.86c0.01-0.02,0.01-0.03,0.02-0.05
	c0.3-1.34,0.63-2.64,0.98-3.85c0.53,0,4.82-0.04,5.94-0.04c0.2,0.62,0.37,1.24,0.52,1.86c0.17,0.71,0.3,1.43,0.39,2.15
	c0.01,0.04,0.02,0.09,0.04,0.12c0.17,0.33,0.4,0.57,0.67,0.72c0.28,0.15,0.57,0.2,0.86,0.14c0.3-0.06,0.55-0.22,0.74-0.48
	c0.18-0.25,0.29-0.56,0.31-0.93c0-0.02,0-0.04,0-0.06c-0.08-0.7-0.2-1.39-0.35-2.04c-0.12-0.51-0.25-1.01-0.39-1.5h0
	c0.03,0,0.05,0,0.07-0.01C36.25,18.22,36.55,18.05,36.76,17.81 M21.71,6.9c0-0.03,0-0.06-0.01-0.09c-0.1-0.38-0.27-0.67-0.52-0.86
	c-0.25-0.19-0.52-0.29-0.8-0.29c-0.31,0-0.6,0.11-0.84,0.33c-0.23,0.21-0.39,0.51-0.49,0.89c-0.01,0.03-0.01,0.06-0.01,0.09
	l-0.04,5.01c-0.02,1.2-0.05,2.48-0.09,3.82c-0.4-0.61-0.81-1.2-1.22-1.77c-0.65-0.9-1.31-1.76-1.96-2.58
	c-0.68-0.85-1.37-1.69-2.05-2.5c0,0-2.1-2.51-2.1-2.51c-0.02-0.03-0.07-0.08-0.1-0.1c-0.32-0.22-0.62-0.32-0.91-0.32
	c-0.31,0-0.59,0.11-0.84,0.33C9.5,6.56,9.35,6.84,9.27,7.2C9.26,7.23,9.26,7.25,9.26,7.28l0.01,6.47l0.01,6.46c0,0.02,0,0.03,0,0.05
	c0.06,0.43,0.22,0.77,0.47,0.99c0.26,0.23,0.55,0.34,0.86,0.34c0.33,0,0.63-0.12,0.9-0.37c0.27-0.25,0.42-0.61,0.44-1.07
	c0-0.02-0.01-2.83-0.01-2.83l-0.01-2.48v-2.36v-1.39l1.37,1.72c0.66,0.84,1.31,1.68,1.92,2.5c0.67,0.9,1.27,1.74,1.83,2.56
	c0.58,0.85,1.15,1.74,1.69,2.66c0.02,0.09,0.07,0.17,0.14,0.22c0.01,0.02,0.03,0.04,0.04,0.06c0.02,0.03,0.05,0.09,0.07,0.13
	c0.02,0.03,0.04,0.06,0.06,0.09c0.32,0.32,0.68,0.49,1.06,0.49c0.27,0,0.52-0.09,0.75-0.26c0.22-0.17,0.39-0.41,0.51-0.73
	c0.02-0.04,0.02-0.08,0.02-0.13v-0.17c0-0.01,0-0.04,0.01-0.07c0,0,0,0,0,0c0.03-0.08,0.04-0.16,0.02-0.23
	c0.13-2.26,0.2-4.44,0.23-6.47L21.71,6.9z M96.37,25.98l-19.55-0.31l-14.38,2.24l-14.08-2.2l-11.24,1l-11.49-0.07l-24.52,1.1L0,11.2
	L0.57,0.17C6,0.14,24.3,2.79,24.3,2.79l31.13-2.11L86,0l9.41,2.55L96.37,25.98z"/>
<path class="st0" d="M61.7,119.88c-0.02-0.03-0.03-0.05-0.06-0.07C61.67,119.83,61.69,119.86,61.7,119.88 M41.27,114.38
	c-0.23-0.42-0.48-0.87-0.75-1.38c-0.14-0.26-0.3-0.52-0.46-0.77c-0.32,0.68-0.62,1.38-0.91,2.1c-0.29,0.73-0.57,1.48-0.83,2.25
	l3.97-0.04c-0.12-0.26-0.24-0.54-0.38-0.84C41.89,115.71,41.25,114.36,41.27,114.38 M16.23,111.07c-0.42-0.22-0.9-0.33-1.41-0.33
	c-0.5,0-1.02,0.08-1.52,0.23c-0.44,0.13-0.85,0.28-1.22,0.45v5.18c0.22,0.04,0.43,0.08,0.64,0.11c0.32,0.04,0.64,0.06,0.96,0.06
	c0.31,0,0.62-0.02,0.91-0.07c0.43-0.08,0.87-0.18,1.28-0.32c0.38-0.13,0.73-0.35,1.02-0.65c0.28-0.31,0.49-0.63,0.63-1
	c0.14-0.36,0.21-0.71,0.21-1.08c0-0.53-0.13-1.03-0.38-1.48C17.09,111.71,16.71,111.34,16.23,111.07 M88.45,107.83
	c0.02-0.29-0.06-0.57-0.26-0.84c-0.19-0.25-0.46-0.43-0.81-0.55c-0.04-0.01-0.08-0.02-0.12-0.02l-0.94,0.01c0,0-0.06,0-0.06,0
	l-1.63,0.01h-1.98h-1.98h-1.65h-0.98c-0.46,0-0.82,0.13-1.08,0.4c-0.24,0.25-0.38,0.54-0.4,0.87c-0.02,0.32,0.08,0.62,0.31,0.89
	c0.22,0.26,0.54,0.44,0.95,0.51c0.02,0,0.05,0.01,0.07,0.01h3.3l0.02,11.06c0,0.02,0,0.03,0,0.05c0.06,0.43,0.22,0.77,0.48,0.99
	c0.26,0.23,0.55,0.34,0.86,0.34c0.33,0,0.63-0.12,0.9-0.37c0.27-0.25,0.42-0.61,0.44-1.07c0-0.02-0.02-9.04-0.02-11.01l3.26-0.02
	c0.02,0,0.05,0,0.07-0.01c0.38-0.08,0.68-0.23,0.89-0.45C88.3,108.41,88.42,108.14,88.45,107.83 M70.77,115.34
	c-0.7,0.03-1.4,0.04-2.09,0.02v-3.49c0.88-0.12,1.79-0.18,2.71-0.17c1.08,0.02,2.1,0,3.03-0.05l0.03,0l0.03-0.01
	c0.44-0.1,0.76-0.3,0.96-0.58c0.2-0.29,0.28-0.59,0.24-0.91c-0.05-0.31-0.2-0.59-0.46-0.82c-0.27-0.24-0.63-0.35-1.07-0.33
	c-0.65,0.03-1.29,0.05-1.9,0.05c-0.63,0-1.28,0.01-1.95,0.04c-0.67,0.02-1.31,0.07-1.95,0.14c-0.66,0.07-1.32,0.21-1.94,0.4
	c-0.35,0.12-0.61,0.31-0.78,0.55c-0.17,0.24-0.25,0.5-0.25,0.76c0,0.26,0.08,0.5,0.23,0.73c0.11,0.15,0.25,0.27,0.41,0.36v10.14
	c-0.02,0.24,0.04,0.5,0.2,0.75c0.14,0.24,0.37,0.44,0.69,0.6l0.04,0.02l0.04,0.01c0.61,0.15,1.25,0.25,1.9,0.29
	c0.66,0.05,1.34,0.06,2,0.04c0.66-0.02,1.34-0.08,2-0.18c0.66-0.1,1.28-0.23,1.87-0.39l0.05-0.01l0.04-0.02
	c0.34-0.2,0.57-0.44,0.68-0.73c0.12-0.29,0.14-0.57,0.06-0.85c-0.08-0.29-0.26-0.52-0.52-0.7c-0.27-0.18-0.59-0.26-0.97-0.24
	l-0.04,0l-0.04,0.01c-0.86,0.23-1.8,0.38-2.78,0.45c-0.88,0.06-1.74,0.04-2.55-0.06v-3.13c0.73,0.02,1.49,0.01,2.24-0.03
	c0.88-0.05,1.76-0.11,2.62-0.19l0.02,0l0.02-0.01c0.43-0.1,0.76-0.3,0.96-0.58c0.2-0.29,0.28-0.6,0.24-0.91
	c-0.04-0.31-0.2-0.58-0.46-0.81c-0.27-0.24-0.63-0.35-1.07-0.33C72.44,115.24,71.61,115.3,70.77,115.34 M62.02,107.15
	c0-0.03,0-0.06-0.01-0.1c-0.1-0.38-0.28-0.66-0.52-0.85c-0.25-0.19-0.52-0.29-0.8-0.29c-0.31,0-0.6,0.11-0.84,0.33
	c-0.23,0.2-0.39,0.5-0.49,0.89c-0.01,0.03-0.01,0.06-0.01,0.09c0,0-0.03,4.93-0.03,4.93c-0.02,1.17-0.05,2.41-0.09,3.71
	c-0.38-0.58-0.77-1.14-1.17-1.7c-0.63-0.87-1.27-1.72-1.93-2.54c-0.65-0.81-1.33-1.64-2.02-2.46l-0.39-0.46l-1.71-2.04
	c-0.02-0.03-0.05-0.05-0.07-0.07c-0.31-0.22-0.62-0.33-0.91-0.33c-0.31,0-0.6,0.12-0.84,0.33c-0.23,0.21-0.38,0.5-0.46,0.85
	c-0.01,0.03-0.01,0.05-0.01,0.08l0.01,6.37c0,0,0.01,6.37,0.01,6.37c0,0.02,0,0.04,0,0.05c0.06,0.43,0.22,0.77,0.48,0.99
	c0.25,0.22,0.54,0.34,0.86,0.34c0.33,0,0.63-0.12,0.89-0.36c0.27-0.26,0.42-0.61,0.44-1.07c0-0.02-0.01-2.79-0.01-2.79l-0.01-2.44
	v-2.33v-1.31l1.31,1.65c0.66,0.83,1.29,1.66,1.89,2.46c0.6,0.8,1.21,1.65,1.81,2.53c0.57,0.84,1.13,1.72,1.66,2.62
	c0.02,0.09,0.07,0.17,0.14,0.23c0.01,0.02,0.03,0.04,0.04,0.06c0.02,0.02,0.04,0.07,0.07,0.12c0.02,0.03,0.04,0.06,0.06,0.09
	c0.32,0.32,0.68,0.49,1.06,0.49c0.27,0,0.52-0.09,0.75-0.27c0.22-0.17,0.39-0.41,0.51-0.73c0.02-0.04,0.02-0.09,0.02-0.13v-0.16
	c0-0.02,0-0.04,0-0.07c0,0,0,0,0,0c0.03-0.08,0.04-0.16,0.02-0.24c0.12-2.15,0.2-4.3,0.23-6.38L62.02,107.15z M47,118.7
	c0.21-0.24,0.33-0.51,0.34-0.8c0.01-0.29-0.08-0.56-0.27-0.81c-0.19-0.25-0.47-0.44-0.84-0.55c-0.04-0.01-0.08-0.02-0.12-0.02
	l-0.97,0.02c-0.11-0.28-0.22-0.56-0.34-0.83c-0.15-0.36-0.31-0.73-0.49-1.09c-0.45-1-0.95-2.02-1.5-3
	c-0.56-1.01-1.27-1.93-2.09-2.72c-0.02-0.02-0.04-0.04-0.07-0.05c-0.01-0.01-0.02-0.02-0.04-0.02c-0.14-0.12-0.31-0.22-0.51-0.26
	c-0.22-0.06-0.45-0.04-0.69,0.04c0.01,0,0.01,0,0.02-0.01c-0.01,0-0.03,0.01-0.04,0.01c0.01,0,0.02,0,0.02-0.01
	c-0.56,0.13-0.79,0.48-0.89,0.76c-1.09,2.07-2.01,4.2-2.73,6.34c-0.72,2.14-1.35,4.38-1.86,6.64c-0.08,0.45-0.03,0.82,0.15,1.12
	c0.18,0.3,0.42,0.49,0.73,0.58c0.3,0.09,0.61,0.06,0.93-0.09c0.32-0.15,0.57-0.44,0.73-0.86c0.01-0.02,0.01-0.04,0.02-0.05
	c0.29-1.31,0.61-2.57,0.96-3.78c0.58,0,4.71-0.04,5.82-0.04c0.19,0.6,0.37,1.21,0.51,1.82c0.17,0.69,0.3,1.4,0.39,2.11
	c0.01,0.04,0.02,0.09,0.04,0.13c0.17,0.33,0.4,0.57,0.67,0.72c0.28,0.15,0.57,0.2,0.86,0.14c0.3-0.06,0.55-0.22,0.75-0.49
	c0.18-0.25,0.29-0.56,0.31-0.93c0-0.02,0-0.04,0-0.06c-0.07-0.66-0.19-1.34-0.34-2.01c-0.11-0.48-0.24-0.97-0.38-1.46
	c0.02,0,0.04,0,0.06-0.01C46.49,119.1,46.79,118.94,47,118.7 M32.23,119.62c0.21-0.24,0.33-0.51,0.34-0.79
	c0.01-0.29-0.08-0.56-0.28-0.82c-0.19-0.25-0.47-0.44-0.84-0.55c-0.04-0.01-0.08-0.02-0.12-0.02c-1.17,0.03-2.2,0.05-3.14,0.06
	c-0.92,0.01-1.84,0.02-2.74,0.05l0.02-5.33l0.02-5.72c0-0.04-0.01-0.08-0.02-0.12c-0.12-0.37-0.31-0.66-0.56-0.84
	c-0.25-0.19-0.53-0.29-0.81-0.27c-0.28,0.01-0.55,0.12-0.79,0.34c-0.24,0.21-0.4,0.51-0.48,0.88c-0.01,0.02-0.01,0.05-0.01,0.08
	l-0.02,6.15l-0.02,6.13c0,0.01,0,0.03,0,0.04c0.08,0.78,0.56,1.26,1.34,1.34c0.02,0,0.03,0,0.05,0c1.08-0.03,2.24-0.05,3.53-0.06
	c1.23-0.01,2.44-0.03,3.57-0.06c0.02,0,0.05,0,0.07-0.01C31.72,120.03,32.02,119.87,32.23,119.62 M19.66,116.44
	c0.52-0.83,0.78-1.73,0.78-2.7c0-0.5-0.07-1-0.21-1.5c-0.14-0.49-0.34-0.97-0.58-1.4c-0.25-0.44-0.56-0.84-0.92-1.21
	c-0.36-0.36-0.77-0.67-1.23-0.91c-0.41-0.23-0.85-0.39-1.3-0.49c-0.44-0.09-0.89-0.14-1.35-0.14c-0.68,0-1.37,0.09-2.05,0.27
	c-0.63,0.17-1.23,0.38-1.79,0.62c-0.08-0.02-0.16-0.02-0.26-0.02c-0.31,0-0.59,0.11-0.83,0.31c-0.23,0.2-0.4,0.5-0.49,0.88
	c-0.01,0.03-0.01,0.06-0.01,0.09v5.97c-0.2,0.09-0.38,0.2-0.51,0.36c-0.2,0.23-0.3,0.5-0.3,0.79c0,0.25,0.08,0.49,0.23,0.72
	c0.13,0.21,0.34,0.4,0.61,0.55v4.28c0,0.02,0,0.03,0,0.05c0.06,0.43,0.22,0.77,0.48,0.99c0.25,0.22,0.54,0.34,0.85,0.34
	c0.32,0,0.63-0.12,0.89-0.36c0.27-0.26,0.42-0.62,0.44-1.07c-0.01-0.64-0.02-1.31-0.02-2.02v-1.57c0.21,0.03,0.42,0.05,0.61,0.07
	c0.34,0.03,0.7,0.05,1.08,0.05c0.21,0,0.39,0,0.56-0.01c0.17-0.01,0.35-0.02,0.58-0.04c1.02-0.08,1.94-0.38,2.73-0.89
	C18.43,117.96,19.11,117.28,19.66,116.44 M96.38,99.94L96,124.58l-15.07,2.98l-18.59-1l-42.46,0.69l-18.33,0.29L0,116.74l0.72-14.7
	l13.34-1.65l17.9,1.87l22.88-0.15l31.63-3L96.38,99.94z"/>
<path class="st1" d="M53.21,46.65l-0.17,0.03l-0.07-0.1L53.21,46.65z M52.92,46.02L53.24,46l0,0.18C53.09,46.1,53,46.2,52.92,46.02
	 M49.79,42.36c0.08-0.1,0.24-0.11,0.37-0.14C50.04,42.26,49.91,42.3,49.79,42.36 M50.07,45.72l-0.57,0.12l-0.04-0.03L50.07,45.72z
	 M45.69,45.01l0.26-0.09c-0.07,0.06-0.16,0.03-0.22,0.12L45.69,45.01z M43.13,44.72c-0.15-0.28-0.03,0.03,0.05-0.29
	C43.14,44.54,43.28,44.66,43.13,44.72 M42.62,44.93c0.06-0.07,0.06-0.23,0.18-0.1L42.62,44.93z M60.26,48.42
	c-0.29-1.22-0.62,0.45-0.97,0.28c0.1,0.72-0.02,1.48-0.1,2.25c-0.02-0.7,0.04-2.19-0.42-3.27c-0.67,0.49-1.45-0.68-1.73,0.59
	c0.1,0.18,0.2,0.2,0.29,0.17l-0.13-0.06l0.23-0.16c0.03,0.05,0.05,0.11,0.06,0.16c0.1-0.03,0.2,0.02,0.3,0.4
	c-0.24,0.34-0.25,0.72-0.35,1.2c-0.3-0.11-0.34-0.64-0.66-0.58c-0.1,0.57,0.23,1,0.43,1.12c-0.14,0.06-0.32-0.2-0.52,0.15
	c-0.38,0.81,0.39,0.73,0.58,0.85c-0.48,0.36-1.54,0.33-1.29,1.38l-0.39-1.01c-0.4,0.45,0.14,0.98-0.61,1.43
	c0.54-0.52,0.58-1.22,0.08-1.18c-0.01,1.2-1.65,0.77-1.44,1.93l-0.43-0.99c-1,0.47,0,0.87-0.71,1.46c0.26-0.26-0.12-0.38,0.21-0.62
	c-0.25-0.27-0.92,0.06-1.53,0.22c-2.37,0.85-4.51,0.28-7.24,0.64c0,0.01,0,0.01,0,0.02c0.02-0.14-0.01-0.26-0.19-0.36
	c-2.64-0.59-4.14-0.06-6.77-1.62c-0.01-0.72-1.38-0.63-1.9-1.39c-2.33,0.1-5.29-2.32-7.73-1.92c3.59-1.8,8.34,0.87,11.6,2.08
	c-0.03-0.16,0.08-0.25-0.12-0.39c3.29,1.08,6.78,2.1,9.45,1.12l0.02,0.18c1.08,0,0.93-0.7,1.64-0.97c-0.06,0.18-0.48,0.35-0.25,0.62
	c0.36,0.04,1.35-0.63,1.9-0.44c0.21-0.43-0.17-0.64,0.04-1.02l0.53,0.44c0.14-0.37,0.54-0.28,0.38-0.82l-0.36-0.02
	c0.41-0.26,0.22-0.71,0.82-1.22l-0.21-0.07c0.24-0.37,0.39-0.84,0.47-1.35c-0.7-0.11-1.45-0.29-2.12-0.1l0.01-0.06
	c-0.28-0.04-0.29,0.16-0.52,0.19c0.04-0.06,0.17-0.07,0.12-0.18c-0.08-0.02-0.46,0.04-0.61-0.13c-0.15,0.09-0.06,0.22-0.25,0.27
	l-0.08-0.22c-0.18,0.05-0.28-0.04-0.48,0.08l0.13,0.12c-0.28-0.1-0.56,0.06-0.8-0.14l-0.02,0.07c-0.58-0.24-1.35-0.31-1.88-0.43
	c-0.46,0.05-1.04-0.07-1.34,0.15c0.04-0.08,0.2-0.04,0.15-0.16c-0.45-0.13-0.36,0.28-0.73,0.14c-0.12,0.16,0.29,0.11,0.06,0.23
	c-0.21-0.11-0.25-0.43-0.62-0.2c0,0.16,0.22,0.04,0.03,0.2c-0.22-0.46-1-0.55-1.23-0.75l0.03,0.2c-0.26,0.04-0.45-0.21-0.59-0.17
	c-0.34,0.26-0.97-0.2-1.16,0.26l-0.16-0.16l-0.14,0.15v-0.13c-0.58,0.05-0.03,0.73-0.69,0.73l0.13-0.24c-0.05-0.11-0.22-0.06-0.38,0
	l-0.03-0.2c-0.11-0.02-0.15,0.09-0.2,0.14c0.19-0.35-0.4-0.19-0.47-0.32l0.02,0.2c-0.06-0.2-0.17-0.25-0.35-0.37l-0.07,0.23
	c-0.08-0.08-0.27-0.22-0.35-0.05l0-0.32c-0.21,0.21-0.13-0.06-0.4,0.1l0.09,0.2c-0.18-0.15-0.25-0.39-0.45-0.45
	c-0.27,0-0.29,0.12-0.56,0.07c0.22-0.12,0.47-0.39,0.64-0.4c1.17-0.28,2.5-0.55,3.77-0.49c0.26-0.04,0.58-0.12,0.62-0.37
	c0.21,0.08,0.45,0.05,0.76-0.01c0.01-0.07-0.03,0.2,0.12,0.21l0.3-0.26l0.03,0.07c0.12-0.27,0.56-0.06,0.71-0.29l-0.01,0.18
	c0.3-0.15,0.73-0.09,0.98-0.32c-0.07,0.2,0.14,0.12,0.28,0.11l-0.13,0.23c0.18-0.08,0.17,0.16,0.35,0.09l0.04-0.03
	c0.01-0.05-0.05-0.07-0.1-0.11c0.17,0.02,0.16,0.06,0.1,0.11l0,0.02l-0.03,0.01c-0.06,0.05-0.14,0.1-0.13,0.15
	c0.21,0.12,0.23-0.19,0.42-0.03l-0.02-0.2c0.27,0.24,0.32,0.14,0.64,0.31c0.09-0.15,0.07-0.36,0.23-0.44
	c0.04,0.09,0.02,0.24,0.23,0.16c0.01-0.07-0.06-0.1-0.12-0.14c0.4-0.11,0.92-0.24,1.34-0.09c-0.23,0.1,0.08,0.21,0.05,0.32
	l0.43-0.06c-0.12,0.07-0.41,0.1-0.63,0.24c0.1,0.22-0.17,0.49,0.11,0.57c0.12-0.1-0.08-0.18,0.11-0.25
	c0.07,0.09,0.16,0.07,0.27,0.07c-0.01,0.1-0.14,0.15-0.11,0.25c0.14,0,0.22-0.13,0.24-0.21c0.02,0.04-0.03,0.12,0.06,0.16
	c0.21,0.03,0.13-0.21,0.15-0.28c0.09,0.1,0.2,0.46,0.39,0.18l-0.17,0.29c0.16,0.01,0.19-0.19,0.38-0.12c-0.18,0-0.33,0.07-0.26,0.22
	c0.24-0.21,0.46,0.25,0.62-0.12l-0.08,0.35c0.31,0.06,0.14-0.24,0.37-0.29c-0.09,0.03-0.02,0.13-0.12,0.15
	c0.01,0.11,0.21,0.16,0.37,0.16c0.61,0.01,1.07,0.24,1.72,0.04c0.03-0.1-0.1-0.17-0.18-0.26l-0.6-0.11
	c0.42-0.18,1.09,0.04,1.56-0.01c-0.09,0.18-0.37-0.01-0.53,0.08l0.27,0.15l-0.51,0c0,0.1-0.06,0.2,0.02,0.25
	c0.4,0.07,0.69-0.01,1.01,0.02c0.06-1.32-0.18-2.73-0.33-3.39c-0.66-0.5-1.64-1.51-2.78-1.25c0.13-0.03,0.23-0.08,0.19-0.25
	c-1.46-0.58-1.23,0.53-2.57,0.18c-0.44,0.49,1.06,0.33,0.21,0.69c-0.72-0.28-0.88-1.39-2.32-0.5c0.05,0.48,0.85-0.02,0.15,0.6
	c-0.92-1.36-4.28-1-5.36-1.25l0.25,0.57c-1.05,0.36-2.05-0.07-2.59,0.23c-1.19,1.15-4.23,0.88-4.52,2.5l-0.83-0.18l-0.4,0.68
	l-0.15-0.37c-2.27,1.21,0.7,2.07-1.88,3.27c-0.02-0.3-0.05-0.6,0.21-0.89c-0.34-0.23-0.94,0.26-1.46,0.72l-0.36-0.5
	c-0.45,0.17-0.46,0.54-0.58,0.77c0.25-1.35-1.79,0.31-2.21,0.15l0.38,0.49c-0.51-0.4-1-0.28-1.84-0.19l0.1,0.73
	c-0.43-0.04-1.34,0.09-1.33,0.69l-0.52-0.83c-0.42,1.04-0.59,0.17-1.28,1.25l0.67,0.27c-0.9,0.05-1.55-0.31-2.38,0.09
	c-0.95,0.73-0.67,1.1-1.62,1.75c0.34-0.86,0.62-2.23,1.27-2.74c3.74-4.01,9.08-7.68,14.66-9.6c1.07-0.61,2.48-1.25,2.45-2.03
	c0.99-0.08,2.06-0.53,3.48-1.05c-0.01-0.23-0.01,0.61,0.66,0.48l1.27-1.11l0.16,0.19c0.5-0.88,2.69-0.59,3.37-1.37l-0.03,0.55
	c1.54-0.48,3.67-0.45,5.17-0.81c-0.48,0.52,0.68,0.47,1.46,0.58l-0.9,0.55c0.99-0.06,0.74,0.51,1.71,0.73l0.22-0.01
	c0.09-0.11-0.19-0.32-0.42-0.53c0.88,0.43,0.76,0.52,0.42,0.53l-0.03,0.04l-0.18-0.04c-0.37,0-0.8-0.01-0.78,0.14
	c0.86,0.75,1.36-0.05,2.08,0.82l0.21-0.58c0.99,1.21,1.19,1.44,2.08,2.88c0.72,0.06,1.15-0.36,1.77,0.3
	c-0.11,0.36-0.55,0.45,0.13,1.39c0.23-0.03,0.13-0.43,0.09-0.79C60.03,43.38,60.54,46.13,60.26,48.42 M54.54,55.62
	c0.74-0.58,1.35-1.35,1.79-2.13l0.17-0.1C56.04,54.24,55.34,55.03,54.54,55.62 M39.76,54.53l0.73,0.01l0.33,0.34L39.76,54.53z
	 M40.52,55.53c0.35-0.46,1.71,0.16,2.37,0.04l-1.27-0.63c0.76,0.12,1.51,0.23,2.26,0.27c-0.02-0.13,0.01-0.26,0.03-0.37
	c0,0.27,0.53,0.55,0.88,0.78c0.94,0.22,1.96,0.12,2.76,0.31C45.75,56.75,42.63,55.6,40.52,55.53 M39.7,56.52l-0.05-0.57
	c0.71,0.36,1.09,0.14,1.51,0.7L39.7,56.52z M24.63,50.57c-0.38-0.01,0.04-0.46,0.02-0.69C25.04,49.89,25.4,50.3,24.63,50.57
	 M22.66,52.2c0.02-0.53-1.32-0.64,0.09-1.68c-0.33,0.29-1.06,1.34,0,1.13c0.19-0.3,0.42-0.51,0.65-0.75
	C23.11,51.3,22.87,51.73,22.66,52.2 M20.45,53.35l0.92-0.63l0.04,0.88C20.84,53.66,20.18,53.78,20.45,53.35 M38.08,36.43
	c-0.19,0.19-0.36,0.43-0.78,0.54C37.55,36.69,37.4,36.2,38.08,36.43 M39.66,34.8c-0.13,0.37,0.62,0.54-0.08,0.91
	C38.71,35.06,39.44,35.85,39.66,34.8 M54.36,36.46c-0.45,0-0.93-0.33-1.37-0.21l-0.19-0.17L54.36,36.46z M52.25,33.07l-23.06,1.65
	L18.53,46.87l-2.41,7.58l15.12,2.54l21.41,1.65l9.88-5.36l4.12-13.2L52.25,33.07z"/>
<path class="st2" d="M78.83,73.77c0.94-0.53-0.07-0.18,0.8,0.44C79.35,73.94,78.89,74.56,78.83,73.77 M78.59,71.19
	c0.16,0.33,0.67,0.39,0.18,0.93C78.67,71.86,78.53,71.62,78.59,71.19 M63.53,81.72l-0.15,0.19l0.04-0.16L63.53,81.72z M64.06,81.9
	l-0.11,0.3l-0.17-0.07C63.92,82.03,63.87,81.91,64.06,81.9 M65.63,78.82l-0.16,0.59l0.12-0.57L65.63,78.82z M67.84,75.7l0.04-0.03
	l-0.02,0.28C67.83,75.86,67.9,75.79,67.84,75.7 M68.64,80.88c0.02-0.12,0.03-0.26,0.02-0.4C68.72,80.6,68.67,80.75,68.64,80.88
	 M69.17,72.89c0.04,0.08,0.19,0.14,0.01,0.21L69.17,72.89z M69.4,73.6c-0.08-0.08-0.25,0-0.24-0.16
	C69.47,73.42,69.14,73.4,69.4,73.6 M76.33,73.93l0.51,1.61l-0.23,0.07c0.61,0.81-0.53,2.7-0.09,3.63l-0.49-0.25
	c-0.17,1.6-1.05,3.55-1.32,5.07c-0.29-0.65-0.71,0.44-1.11,1.11l-0.15-1.05c-0.34,0.93-0.76,0.47-1.35,1.28l-0.08,0.2
	c0.07,0.13,0.37-0.04,0.65-0.17c-0.74,0.64-0.78,0.49-0.65,0.17l-0.03-0.05l0.11-0.15c0.15-0.34,0.33-0.73,0.18-0.77
	c-1.03,0.49-0.5,1.26-1.59,1.58l0.45,0.43c-1.5,0.42-1.79,0.52-3.46,0.76c-0.35,0.64-0.13,1.2-0.98,1.5
	c-0.28-0.24-0.19-0.69-1.33-0.43c-0.07,0.23,0.35,0.29,0.69,0.4c-2.41,0.62-5.13-0.01-7.12-1.18c1.23,0.22-0.17-0.75,0.14-1
	c-0.7-0.2-1.35-0.61-2.02-0.99c0.65,0.26,1.99,0.92,3.16,0.92c-0.18-0.81,1.2-1.06,0.15-1.82c-0.21,0.02-0.26,0.11-0.27,0.2
	l0.11-0.09l0.06,0.28c-0.06,0-0.12,0-0.17-0.01c-0.02,0.11-0.1,0.18-0.49,0.11c-0.21-0.36-0.56-0.52-0.96-0.8
	c0.22-0.23,0.72-0.05,0.79-0.38c-0.48-0.32-1.01-0.19-1.19-0.05c0-0.15,0.31-0.22,0.07-0.53c-0.59-0.68-0.82,0.07-1.01,0.2
	c-0.14-0.58,0.31-1.54-0.75-1.74l1.08,0.05c-0.25-0.54-0.95-0.26-1.06-1.13c0.26,0.7,0.89,1.02,1.05,0.55
	c-1.1-0.48-0.04-1.82-1.19-2.09l1.08,0c-0.03-1.1-0.79-0.34-1.05-1.23c0.14,0.34,0.4,0.04,0.49,0.44c0.34-0.12,0.31-0.87,0.4-1.49
	c0.16-2.51,1.54-4.25,2.3-6.89c0,0-0.01-0.01-0.01-0.01c0.12,0.07,0.24,0.1,0.41-0.03c1.59-2.19,1.71-3.77,4.18-5.57
	c0.67,0.28,1.13-1.02,2.03-1.19c0.83-2.18,4.23-3.93,4.84-6.32c0.22,4.01-4.13,7.3-6.54,9.81c0.16,0.03,0.2,0.18,0.4,0.04
	c-2.31,2.59-4.63,5.38-4.8,8.22l-0.17-0.05c-0.43,0.99,0.27,1.13,0.23,1.9c-0.15-0.13-0.12-0.58-0.47-0.47
	c-0.18,0.32,0.04,1.49-0.35,1.92c0.3,0.37,0.66,0.1,0.92,0.44l-0.62,0.31c0.29,0.28,0.04,0.61,0.6,0.68l0.16-0.32
	c0.07,0.47,0.56,0.48,0.79,1.24l0.15-0.17c0.24,0.37,0.62,0.69,1.05,0.97c0.38-0.6,0.84-1.22,0.93-1.9l0.05,0.03
	c0.15-0.24-0.03-0.33,0.03-0.55c0.04,0.05,0,0.18,0.11,0.19c0.05-0.07,0.15-0.43,0.36-0.51c-0.02-0.17-0.18-0.14-0.15-0.34
	l0.23,0.02c0.03-0.19,0.15-0.24,0.12-0.47L64,78.07c0.21-0.22,0.17-0.54,0.45-0.67l-0.06-0.04c0.45-0.44,0.82-1.11,1.14-1.55
	c0.14-0.44,0.48-0.93,0.4-1.29c0.05,0.07-0.04,0.2,0.08,0.2c0.3-0.36-0.11-0.44,0.16-0.72c-0.1-0.17-0.22,0.23-0.24-0.03
	c0.18-0.14,0.49-0.06,0.43-0.49c-0.15-0.06-0.12,0.18-0.2-0.06c0.51-0.01,0.91-0.7,1.18-0.82l-0.2-0.06
	c0.06-0.25,0.38-0.33,0.39-0.47c-0.1-0.41,0.57-0.81,0.22-1.17l0.21-0.09l-0.08-0.19l0.12,0.05c0.19-0.55-0.66-0.32-0.39-0.92
	l0.17,0.21c0.12,0,0.15-0.18,0.15-0.34l0.2,0.06c0.06-0.09-0.02-0.17-0.05-0.24c0.25,0.32,0.34-0.29,0.48-0.3l-0.2-0.06
	c0.21,0.03,0.3-0.06,0.48-0.17l-0.18-0.15c0.11-0.04,0.31-0.16,0.18-0.3l0.3,0.13c-0.11-0.28,0.11-0.09,0.07-0.41l-0.22,0
	c0.21-0.1,0.46-0.07,0.59-0.23c0.1-0.25,0-0.32,0.16-0.54c0.02,0.25,0.17,0.58,0.11,0.75c-0.21,1.19-0.49,2.51-1.06,3.65
	c-0.06,0.26-0.12,0.58,0.09,0.71c-0.16,0.16-0.23,0.39-0.29,0.7c0.06,0.04-0.17-0.1-0.24,0.02l0.11,0.38l-0.08,0
	c0.19,0.22-0.17,0.54-0.02,0.77l-0.16-0.08c0.02,0.34-0.21,0.71-0.1,1.02c-0.15-0.14-0.17,0.08-0.21,0.22l-0.16-0.22
	c0,0.19-0.21,0.09-0.22,0.29l0.01,0.04c0.04,0.03,0.09-0.02,0.14-0.05c-0.08,0.15-0.12,0.12-0.14,0.05l-0.02-0.01l0-0.04
	c-0.02-0.08-0.04-0.17-0.08-0.18c-0.19,0.14,0.09,0.29-0.14,0.4l0.2,0.06c-0.33,0.15-0.25,0.24-0.53,0.46
	c0.1,0.15,0.3,0.21,0.32,0.39c-0.1,0.01-0.22-0.08-0.24,0.14c0.06,0.04,0.12-0.02,0.17-0.05c-0.05,0.41-0.15,0.94-0.45,1.27
	c0-0.25-0.22-0.01-0.32-0.08l-0.12,0.42c-0.02-0.14,0.07-0.42,0.04-0.68c-0.24,0-0.38-0.35-0.57-0.12c0.05,0.15,0.19,0,0.19,0.2
	c-0.11,0.03-0.13,0.12-0.17,0.21c-0.09-0.05-0.08-0.18-0.18-0.2c-0.06,0.13,0.03,0.26,0.09,0.3c-0.05,0-0.1-0.08-0.17-0.01
	c-0.11,0.18,0.13,0.21,0.2,0.25c-0.13,0.04-0.5,0-0.32,0.29l-0.2-0.28c-0.08,0.14,0.1,0.25-0.05,0.4c0.07-0.16,0.06-0.33-0.1-0.33
	c0.09,0.31-0.41,0.33-0.14,0.62l-0.29-0.21c-0.18,0.26,0.16,0.23,0.12,0.46c0-0.1-0.11-0.07-0.09-0.17
	c-0.1-0.03-0.23,0.13-0.29,0.27c-0.25,0.56-0.64,0.88-0.73,1.56c0.08,0.07,0.2-0.02,0.3-0.06l0.34-0.51c0,0.46-0.48,0.99-0.62,1.44
	c-0.13-0.15,0.15-0.34,0.14-0.52l-0.25,0.19l0.21-0.47c-0.1-0.04-0.16-0.14-0.24-0.09c-0.22,0.34-0.27,0.64-0.42,0.92
	c1.18,0.58,2.57,0.92,3.24,1.05c0.72-0.4,2.04-0.9,2.26-2.05c-0.02,0.13-0.02,0.24,0.15,0.28c1.12-1.11,0-1.34,0.86-2.42
	c-0.27-0.6-0.73,0.83-0.71-0.08c0.55-0.55,1.62-0.25,1.38-1.93c-0.47-0.14-0.32,0.79-0.61-0.1c1.62-0.31,2.62-3.53,3.28-4.42
	l-0.62,0c0.09-1.11,0.88-1.86,0.82-2.47c-0.58-1.55,0.88-4.23-0.49-5.15l0.5-0.7l-0.46-0.64l0.4,0.02c-0.2-2.57-2.17-0.18-2.25-3.02
	c0.28,0.1,0.57,0.2,0.73,0.55c0.35-0.22,0.14-0.97-0.08-1.63l0.6-0.13c0.02-0.48-0.31-0.64-0.47-0.84c1.13,0.77,0.43-1.76,0.74-2.09
	l-0.6,0.15c0.57-0.31,0.66-0.81,0.91-1.61l-0.71-0.2c0.21-0.38,0.46-1.27-0.1-1.49l0.96-0.15c-0.79-0.8,0.08-0.6-0.63-1.67
	l-0.51,0.51c0.32-0.84,0.91-1.3,0.87-2.22c-0.29-1.16-0.74-1.06-0.96-2.18c0.65,0.65,1.8,1.46,2,2.26
	c2.18,5.04,3.41,11.39,2.95,17.28c0.13,1.22,0.16,2.77,0.88,3.06c-0.32,0.94-0.34,2.1-0.43,3.61C77.25,73.6,76.49,73.27,76.33,73.93
	 M72.25,87.04c0.18-0.41,0.67-0.72,0.74-1.18l0.23-0.1L72.25,87.04z M54.62,79.55c0.23,0.91,0.7,1.77,1.23,2.49l0.02,0.2
	C55.28,81.48,54.84,80.53,54.62,79.55 M60.3,66.73c0.28,0.5-0.83,1.5-0.98,2.16l1.08-0.91c-0.41,0.65-0.81,1.29-1.15,1.97
	c0.13,0.03,0.23,0.11,0.33,0.18c-0.25-0.11-0.72,0.27-1.07,0.5c-0.58,0.78-0.9,1.75-1.39,2.41C57.09,71.04,59.39,68.64,60.3,66.73
	 M59.72,65.58l0.54,0.19c-0.61,0.5-0.56,0.94-1.24,1.1L59.72,65.58z M61.51,66.43l-0.31,0.67l-0.44,0.17L61.51,66.43z M70.3,49.18
	l0.21,1.09l-0.83-0.32C69.87,49.43,70.02,48.77,70.3,49.18 M71.81,54.43c-0.17,0.35-0.69,0.52-0.62-0.3
	C71.35,53.79,71.59,54.35,71.81,54.43 M71.97,52.43c-0.14-0.42-0.81-1.5-1.03-0.45c0.2,0.29,0.29,0.59,0.43,0.9
	c-0.24-0.43-0.54-0.82-0.89-1.2C70.95,51.91,71.58,50.72,71.97,52.43 M70.71,43.94c0,0-3.27,11.55-3.66,12.74
	c-0.4,1.18-8.26,7.08-12.98,11.41c-4.72,4.33,0.33,17.03,0.33,17.03l6.81,7.11c7.84-1.96,7.14-1.79,13.31-4.86
	c0,0,4.72-9.84,5.5-12.98c0.79-3.15,1.57-14.56,1.57-16.92C81.6,55.1,70.71,43.94,70.71,43.94"/>
<path class="st3" d="M20.28,77.57c-0.13,0.01-0.25-0.09-0.36-0.17C20.03,77.47,20.15,77.53,20.28,77.57 M20.69,72.77l-0.24-0.21
	l0.13-0.13C20.62,72.59,20.76,72.59,20.69,72.77 M20.93,72.13l0.14,0.1l-0.02,0.12L20.93,72.13z M22.96,75.38l-0.49-0.37l0.48,0.32
	L22.96,75.38z M25.04,78.64l-0.25-0.12c0.09,0,0.13,0.1,0.24,0.07L25.04,78.64z M26.63,80.66c-0.1,0.3,0.05,0-0.24,0.17
	C26.5,80.78,26.48,80.6,26.63,80.66 M27.13,80.88c-0.09,0-0.2,0.12-0.2-0.06L27.13,80.88z M47.1,93.73
	c-5.48,0.15-11.84-1.08-17.13-3.71c-1.18-0.33-2.63-0.89-3.16-0.32c-0.75-0.65-1.82-1.09-3.19-1.75c-0.16,0.17,0.44-0.42-0.12-0.81
	l-1.68-0.13l0.02-0.24c-0.98,0.26-2.31-1.5-3.34-1.44l0.41-0.36c-1.42-0.75-2.9-2.3-4.21-3.12c0.71-0.03-0.14-0.82-0.61-1.45
	l1.03,0.25c-0.73-0.66-0.15-0.88-0.68-1.73l-0.16-0.15c-0.15,0.01-0.1,0.35-0.08,0.67c-0.31-0.93-0.17-0.9,0.08-0.67l0.05-0.01
	l0.1,0.16c0.26,0.26,0.55,0.57,0.65,0.45c-0.07-1.14-0.99-0.93-0.88-2.06l-0.56,0.26c0.17-1.55,0.19-1.86,0.59-3.5
	c-0.46-0.56-1.06-0.56-1.03-1.47c0.33-0.17,0.71,0.08,0.9-1.07c-0.18-0.15-0.4,0.21-0.62,0.49c0.33-2.47,1.92-4.76,3.75-6.17
	c-0.66,1.06,0.76,0.12,0.88,0.5c0.44-0.57,1.07-1.03,1.68-1.51c-0.48,0.5-1.59,1.51-2.03,2.59c0.81,0.13,0.54,1.51,1.63,0.82
	c0.06-0.2,0-0.28-0.08-0.33l0.05,0.14l-0.28-0.05c0.02-0.06,0.05-0.12,0.08-0.16c-0.09-0.06-0.13-0.15,0.08-0.49
	c0.41-0.06,0.69-0.32,1.1-0.59c0.13,0.29-0.22,0.69,0.05,0.88c0.48-0.33,0.55-0.86,0.49-1.09c0.14,0.06,0.08,0.37,0.47,0.26
	c0.85-0.3,0.24-0.79,0.2-1.01c0.59,0.09,1.32,0.86,1.89-0.05l-0.45,0.99c0.6-0.03,0.6-0.79,1.44-0.57c-0.74-0.02-1.28,0.44-0.9,0.77
	c0.86-0.84,1.71,0.64,2.38-0.32l-0.4,1c1.04,0.38,0.62-0.61,1.53-0.52c-0.37,0-0.19,0.36-0.59,0.29c-0.02,0.36,0.69,0.62,1.23,0.93
	c2.27,1.09,3.37,3.02,5.53,4.71c0.01,0,0.01-0.01,0.01-0.01c-0.11,0.09-0.18,0.19-0.12,0.39c1.43,2.29,2.86,3,3.6,5.96
	c-0.51,0.52,0.52,1.43,0.34,2.33c1.71,1.59,2.06,5.4,4.06,6.85c-3.8-1.3-5.23-6.56-6.66-9.73c-0.09,0.13-0.24,0.12-0.19,0.36
	c-1.54-3.11-3.26-6.3-5.83-7.52l0.11-0.14c-0.76-0.77-1.15-0.17-1.84-0.49c0.17-0.09,0.59,0.1,0.61-0.26
	c-0.23-0.28-1.39-0.52-1.65-1.04c-0.45,0.15-0.34,0.57-0.75,0.69l-0.06-0.69c-0.36,0.16-0.58-0.19-0.85,0.31l0.24,0.27
	c-0.47-0.11-0.66,0.34-1.44,0.27l0.1,0.2c-0.43,0.09-0.87,0.31-1.29,0.62c0.41,0.57,0.82,1.24,1.42,1.58l-0.05,0.04
	c0.16,0.23,0.32,0.1,0.5,0.23c-0.06,0.01-0.17-0.07-0.21,0.04c0.04,0.07,0.35,0.3,0.34,0.52c0.17,0.04,0.19-0.11,0.37-0.01
	l-0.1,0.21c0.16,0.1,0.17,0.23,0.39,0.29l-0.01-0.18c0.13,0.27,0.44,0.36,0.46,0.67l0.06-0.04c0.24,0.58,0.72,1.18,1.01,1.64
	c0.36,0.29,0.68,0.79,1.05,0.85c-0.08,0.02-0.17-0.11-0.22,0c0.22,0.41,0.45,0.06,0.61,0.42c0.2-0.03-0.13-0.29,0.12-0.21
	c0.07,0.22-0.13,0.48,0.3,0.58c0.11-0.12-0.13-0.18,0.13-0.16c-0.18,0.48,0.31,1.1,0.33,1.4l0.12-0.16
	c0.21,0.15,0.17,0.47,0.29,0.54c0.42,0.06,0.54,0.83,1,0.64l0,0.23l0.2-0.01l-0.1,0.09c0.44,0.38,0.54-0.49,1-0.02l-0.26,0.07
	c-0.04,0.11,0.11,0.2,0.26,0.27l-0.13,0.16c0.06,0.09,0.17,0.04,0.24,0.04c-0.39,0.11,0.14,0.42,0.1,0.56l0.13-0.16
	c-0.1,0.18-0.06,0.3-0.02,0.51l0.21-0.11c0,0.12,0.04,0.35,0.21,0.28l-0.23,0.23c0.3,0.01,0.05,0.14,0.35,0.21l0.08-0.2
	c0.02,0.23-0.11,0.46-0.01,0.64c0.19,0.19,0.29,0.12,0.44,0.35c-0.24-0.07-0.6-0.06-0.74-0.18c-1.02-0.64-2.14-1.39-2.99-2.34
	c-0.21-0.15-0.5-0.33-0.7-0.18c-0.09-0.2-0.28-0.36-0.54-0.54c-0.06,0.05,0.16-0.12,0.07-0.23l-0.4-0.04l0.03-0.07
	c-0.28,0.1-0.44-0.36-0.7-0.31l0.14-0.12c-0.32-0.11-0.58-0.46-0.91-0.47c0.19-0.09-0.01-0.18-0.12-0.28l0.26-0.07
	c-0.18-0.07-0.01-0.23-0.18-0.31l-0.05,0c-0.04,0.03-0.01,0.09,0,0.15c-0.11-0.13-0.07-0.15,0-0.15l0.01-0.01l0.03,0.01
	c0.08,0.01,0.17,0.03,0.19-0.01c-0.06-0.23-0.3-0.03-0.32-0.28l-0.13,0.16c-0.02-0.37-0.12-0.32-0.23-0.67
	c-0.17,0.04-0.31,0.2-0.48,0.15c0.03-0.09,0.15-0.18-0.05-0.28c-0.06,0.04-0.03,0.11-0.02,0.18c-0.36-0.2-0.81-0.49-1.01-0.89
	c0.23,0.09,0.09-0.2,0.19-0.26l-0.34-0.26c0.14,0.04,0.36,0.22,0.61,0.29c0.09-0.23,0.46-0.22,0.33-0.49
	c-0.16-0.01-0.07,0.18-0.26,0.1c0.01-0.11-0.06-0.17-0.13-0.24c0.08-0.06,0.2-0.01,0.26-0.09c-0.1-0.1-0.25-0.07-0.31-0.03
	c0.02-0.04,0.11-0.06,0.08-0.15c-0.12-0.17-0.24,0.05-0.3,0.09c0.01-0.14,0.18-0.46-0.15-0.4l0.33-0.08c-0.1-0.12-0.27,0-0.35-0.19
	c0.12,0.13,0.29,0.18,0.34,0.03c-0.32-0.03-0.15-0.51-0.52-0.36l0.3-0.19c-0.17-0.26-0.27,0.07-0.47-0.06
	c0.09,0.04,0.11-0.08,0.19-0.02c0.07-0.08-0.04-0.26-0.14-0.37c-0.42-0.44-0.58-0.93-1.17-1.25c-0.09,0.05-0.05,0.19-0.06,0.31
	l0.34,0.51c-0.43-0.17-0.74-0.81-1.1-1.11c0.19-0.06,0.26,0.27,0.43,0.32l-0.08-0.3l0.35,0.37c0.07-0.08,0.19-0.1,0.17-0.19
	c-0.23-0.34-0.49-0.49-0.7-0.74c-0.98,0.88-1.82,2.04-2.18,2.62c0.1,0.82,0.07,2.23,1.06,2.86c-0.11-0.07-0.22-0.1-0.31,0.04
	c0.61,1.45,1.24,0.5,1.93,1.7c0.66-0.03-0.5-0.98,0.34-0.63c0.31,0.71-0.37,1.6,1.27,2c0.31-0.38-0.61-0.59,0.32-0.53
	c-0.32,1.61,2.29,3.75,2.87,4.7l0.23-0.58c0.99,0.5,1.39,1.51,1.99,1.68c1.65,0.04,3.59,2.39,4.95,1.47l0.46,0.72l0.76-0.19
	l-0.16,0.37c2.46,0.77,0.98-1.95,3.64-0.96c-0.19,0.22-0.4,0.46-0.78,0.47c0.07,0.41,0.84,0.49,1.54,0.53l-0.11,0.61
	c0.44,0.2,0.71-0.05,0.96-0.13c-1.14,0.77,1.47,1.06,1.66,1.47l0.08-0.62c0.07,0.65,0.51,0.91,1.15,1.45l0.45-0.59
	c0.27,0.34,1,0.9,1.42,0.46l-0.22,0.95c1.04-0.43,0.53,0.3,1.79,0.04l-0.28-0.67c0.66,0.61,0.87,1.33,1.73,1.63
	c1.19,0.17,1.26-0.29,2.38-0.08C49.09,93.07,47.92,93.84,47.1,93.73 M24.27,90.08c0.27,0,0.56-0.04,0.93,0.17
	C24.83,90.28,24.59,90.73,24.27,90.08 M22.01,90.1c0.35-0.17-0.05-0.82,0.7-0.58C22.86,90.59,22.91,89.52,22.01,90.1 M12.87,78.45
	c0.32,0.32,0.42,0.89,0.81,1.12l0.01,0.25L12.87,78.45z M26.39,64.88c-0.93-0.13-1.91-0.02-2.77,0.22l-0.19-0.05
	C24.36,64.78,25.4,64.72,26.39,64.88 M35.98,76.18l-0.5-0.53l0.01-0.47L35.98,76.18z M36.16,74.94c-0.57,0.08-1.08-1.33-1.63-1.72
	l0.44,1.35c-0.45-0.62-0.89-1.23-1.4-1.8c-0.08,0.11-0.19,0.17-0.28,0.24c0.19-0.19,0.02-0.77-0.07-1.18
	c-0.51-0.83-1.29-1.48-1.72-2.19C33.36,70.35,34.73,73.38,36.16,74.94 M36.51,73.7l0.94,1.13l-0.38,0.43
	C36.83,74.51,36.4,74.39,36.51,73.7 M43.78,89.75c0.26,0.28-0.35,0.29-0.51,0.47C43.01,89.93,43.05,89.38,43.78,89.75 M46.32,90
	c-0.39,0.36,0.47,1.39-1.26,1.11c0.44,0.03,1.69-0.19,0.8-0.79c-0.34,0.08-0.66,0.05-0.99,0.06C45.36,90.32,45.84,90.18,46.32,90
	 M48.21,89.91c0.43,0.36,0.98,0.75,0.49,0.86l-1.09-0.21L48.21,89.91z M41.4,76.87c0,0-11.04-21.05-23.71-18.23l-7.55,4.75
	c0,0-4.47,17.61,8.55,25.72c13.02,8.11,17.99,6.93,17.99,6.93s2.72,0.44,4.33,0.31c1.62-0.13,15.38-3.86,15.38-3.86L41.4,76.87z"/>
<g>
</g>
<g>
</g>
<g>
</g>
<g>
</g>
<g>
</g>
<g>
</g>
</svg>
